<svg xmlns="http://www.w3.org/2000/svg" xmlns:xlink="http://www.w3.org/1999/xlink" width="500" zoomAndPan="magnify" viewBox="0 0 375 374.999991" height="500" preserveAspectRatio="xMidYMid meet" version="1.0"><defs><clipPath id="926da5299f"><path d="M 48.890625 48.890625 L 326.390625 48.890625 L 326.390625 326.390625 L 48.890625 326.390625 Z M 48.890625 48.890625 " clip-rule="nonzero"/></clipPath><clipPath id="741845d8f6"><path d="M 60.019531 60.019531 L 314.980469 60.019531 L 314.980469 314.980469 L 60.019531 314.980469 Z M 60.019531 60.019531 " clip-rule="nonzero"/></clipPath><clipPath id="17b1a43f40"><path d="M 187.5 60.019531 C 117.09375 60.019531 60.019531 117.09375 60.019531 187.5 C 60.019531 257.90625 117.09375 314.980469 187.5 314.980469 C 257.90625 314.980469 314.980469 257.90625 314.980469 187.5 C 314.980469 117.09375 257.90625 60.019531 187.5 60.019531 Z M 187.5 60.019531 " clip-rule="nonzero"/></clipPath><clipPath id="d8e58f080c"><path d="M 187.261719 192.660156 L 294.992188 192.660156 L 294.992188 251.792969 L 187.261719 251.792969 Z M 187.261719 192.660156 " clip-rule="nonzero"/></clipPath><clipPath id="1321474a91"><path d="M 79.75 192.660156 L 187.46875 192.660156 L 187.46875 251.792969 L 79.75 251.792969 Z M 79.75 192.660156 " clip-rule="nonzero"/></clipPath><clipPath id="7f3fe79502"><path d="M 156 122.851562 L 219 122.851562 L 219 186 L 156 186 Z M 156 122.851562 " clip-rule="nonzero"/></clipPath></defs><g clip-path="url(#926da5299f)"><path fill="#1c4336" d="M 99.492188 84.105469 C 98.472656 82.855469 98.664062 81.015625 99.917969 79.996094 C 99.917969 79.996094 99.917969 79.996094 99.917969 79.988281 C 101.164062 78.976562 103.007812 79.164062 104.027344 80.410156 C 105.046875 81.664062 104.859375 83.503906 103.605469 84.523438 C 103.058594 84.964844 102.410156 85.1875 101.761719 85.1875 C 100.910156 85.1875 100.070312 84.816406 99.492188 84.105469 Z M 103.800781 290.71875 C 102.546875 289.699219 100.703125 289.894531 99.6875 291.148438 C 98.667969 292.402344 98.863281 294.242188 100.117188 295.261719 C 100.65625 295.695312 101.304688 295.910156 101.957031 295.910156 C 102.804688 295.910156 103.652344 295.539062 104.230469 294.832031 C 105.242188 293.578125 105.054688 291.738281 103.800781 290.71875 Z M 114.804688 75.789062 C 115.335938 75.789062 115.882812 75.636719 116.363281 75.332031 C 117.726562 74.460938 118.128906 72.65625 117.265625 71.300781 C 116.402344 69.933594 114.59375 69.53125 113.230469 70.394531 C 111.867188 71.261719 111.464844 73.066406 112.328125 74.429688 C 112.886719 75.308594 113.835938 75.789062 114.804688 75.789062 Z M 81.90625 268.203125 C 80.925781 266.914062 79.085938 266.675781 77.808594 267.65625 C 76.519531 268.636719 76.28125 270.46875 77.261719 271.753906 C 77.839844 272.5 78.703125 272.898438 79.585938 272.898438 C 80.203125 272.898438 80.828125 272.703125 81.359375 272.292969 C 82.640625 271.3125 82.886719 269.480469 81.90625 268.195312 Z M 116.582031 299.898438 C 115.21875 299.035156 113.414062 299.4375 112.550781 300.808594 C 111.683594 302.171875 112.09375 303.976562 113.457031 304.839844 C 113.457031 304.832031 113.457031 304.832031 113.457031 304.832031 C 113.945312 305.140625 114.484375 305.289062 115.015625 305.289062 C 115.984375 305.289062 116.933594 304.808594 117.492188 303.925781 C 118.355469 302.5625 117.945312 300.753906 116.582031 299.898438 Z M 88.054688 280.042969 C 86.894531 281.171875 86.867188 283.023438 87.996094 284.179688 C 88.570312 284.765625 89.328125 285.0625 90.089844 285.0625 C 90.824219 285.0625 91.558594 284.789062 92.128906 284.238281 C 93.285156 283.109375 93.3125 281.261719 92.1875 280.101562 C 91.0625 278.945312 89.210938 278.917969 88.054688 280.042969 Z M 175.140625 55.296875 C 175.226562 55.296875 175.316406 55.289062 175.402344 55.28125 C 177.011719 55.140625 178.195312 53.722656 178.050781 52.113281 C 177.910156 50.503906 176.484375 49.320312 174.882812 49.464844 C 173.269531 49.605469 172.089844 51.027344 172.230469 52.632812 C 172.367188 54.152344 173.640625 55.296875 175.140625 55.296875 Z M 128.859375 68 C 129.28125 68 129.707031 67.902344 130.117188 67.707031 C 131.574219 67.011719 132.183594 65.265625 131.488281 63.808594 C 130.792969 62.355469 129.046875 61.738281 127.589844 62.441406 C 127.589844 62.433594 127.589844 62.433594 127.589844 62.433594 C 126.136719 63.136719 125.519531 64.882812 126.214844 66.335938 C 126.722656 67.382812 127.765625 68 128.859375 68 Z M 160.125 317.53125 C 158.546875 317.207031 157 318.21875 156.667969 319.796875 C 156.339844 321.375 157.351562 322.929688 158.929688 323.253906 C 159.132812 323.300781 159.332031 323.320312 159.535156 323.320312 C 160.886719 323.320312 162.105469 322.371094 162.390625 320.992188 C 162.722656 319.414062 161.710938 317.863281 160.125 317.53125 Z M 159.242188 57.679688 C 159.441406 57.679688 159.644531 57.652344 159.847656 57.613281 C 161.425781 57.28125 162.4375 55.730469 162.105469 54.152344 C 161.769531 52.566406 160.222656 51.5625 158.636719 51.890625 C 158.644531 51.890625 158.644531 51.890625 158.644531 51.890625 C 157.058594 52.222656 156.050781 53.777344 156.382812 55.355469 C 156.675781 56.730469 157.890625 57.679688 159.242188 57.679688 Z M 143.738281 61.925781 C 144.050781 61.925781 144.367188 61.875 144.679688 61.769531 C 146.207031 61.25 147.023438 59.59375 146.503906 58.0625 C 145.984375 56.535156 144.328125 55.71875 142.804688 56.238281 C 141.269531 56.757812 140.453125 58.414062 140.972656 59.945312 C 141.386719 61.160156 142.523438 61.925781 143.738281 61.925781 Z M 130.359375 307.496094 C 128.902344 306.800781 127.15625 307.417969 126.460938 308.875 C 125.765625 310.335938 126.382812 312.074219 127.84375 312.769531 C 128.246094 312.964844 128.675781 313.054688 129.097656 313.054688 C 130.191406 313.054688 131.242188 312.441406 131.742188 311.386719 C 132.4375 309.933594 131.8125 308.191406 130.359375 307.496094 Z M 89.914062 96.050781 C 90.679688 96.050781 91.441406 95.753906 92.011719 95.160156 C 93.136719 94 93.101562 92.15625 91.945312 91.03125 C 90.789062 89.90625 88.941406 89.933594 87.816406 91.097656 C 86.691406 92.253906 86.71875 94.101562 87.882812 95.226562 C 88.445312 95.777344 89.179688 96.050781 89.914062 96.050781 Z M 61.933594 135.640625 C 62.316406 135.808594 62.710938 135.890625 63.109375 135.890625 C 64.234375 135.890625 65.304688 135.234375 65.785156 134.144531 C 66.433594 132.664062 65.765625 130.941406 64.285156 130.292969 C 62.808594 129.644531 61.082031 130.3125 60.433594 131.789062 C 59.785156 133.269531 60.453125 134.988281 61.933594 135.640625 Z M 56.679688 150.851562 C 56.957031 150.933594 57.242188 150.972656 57.523438 150.972656 C 58.777344 150.972656 59.941406 150.160156 60.324219 148.902344 C 60.789062 147.355469 59.921875 145.71875 58.375 145.25 C 56.828125 144.785156 55.199219 145.652344 54.730469 147.199219 C 54.257812 148.746094 55.132812 150.375 56.679688 150.851562 Z M 51.75 182.566406 C 51.800781 182.570312 51.859375 182.570312 51.917969 182.570312 C 53.457031 182.570312 54.742188 181.371094 54.835938 179.816406 C 54.925781 178.207031 53.691406 176.824219 52.082031 176.734375 C 50.46875 176.640625 49.085938 177.871094 48.996094 179.480469 C 48.90625 181.089844 50.136719 182.472656 51.75 182.566406 Z M 53.269531 166.5625 C 53.445312 166.59375 53.613281 166.605469 53.78125 166.605469 C 55.171875 166.605469 56.40625 165.613281 56.660156 164.199219 L 56.660156 164.191406 C 56.9375 162.605469 55.878906 161.085938 54.289062 160.808594 C 52.699219 160.519531 51.183594 161.585938 50.90625 163.171875 C 50.621094 164.761719 51.679688 166.28125 53.269531 166.5625 Z M 77.652344 107.640625 C 78.183594 108.042969 78.808594 108.238281 79.425781 108.238281 C 80.308594 108.238281 81.179688 107.839844 81.75 107.085938 C 82.730469 105.808594 82.484375 103.96875 81.199219 102.988281 C 79.917969 102.015625 78.078125 102.261719 77.097656 103.539062 C 76.125 104.828125 76.371094 106.65625 77.652344 107.640625 Z M 319.246094 171.554688 C 319.429688 173.042969 320.6875 174.132812 322.144531 174.132812 C 322.261719 174.132812 322.375 174.128906 322.5 174.117188 C 324.097656 173.921875 325.246094 172.464844 325.054688 170.859375 C 324.859375 169.261719 323.402344 168.121094 321.804688 168.308594 C 320.199219 168.503906 319.058594 169.957031 319.246094 171.554688 Z M 316.453125 156.085938 C 316.777344 157.421875 317.972656 158.320312 319.292969 158.320312 C 319.519531 158.320312 319.753906 158.292969 319.980469 158.234375 C 321.550781 157.851562 322.511719 156.273438 322.128906 154.703125 C 321.753906 153.136719 320.167969 152.167969 318.601562 152.550781 C 317.03125 152.933594 316.070312 154.511719 316.453125 156.085938 Z M 68.960938 121.175781 C 69.429688 121.445312 69.941406 121.578125 70.441406 121.578125 C 71.441406 121.578125 72.417969 121.0625 72.960938 120.140625 C 73.785156 118.75 73.324219 116.960938 71.9375 116.140625 C 70.546875 115.316406 68.753906 115.777344 67.929688 117.171875 C 67.929688 117.167969 67.929688 117.167969 67.929688 117.167969 C 67.109375 118.558594 67.570312 120.347656 68.960938 121.175781 Z M 69.089844 254.148438 C 67.699219 254.964844 67.246094 256.765625 68.070312 258.148438 C 68.617188 259.070312 69.589844 259.582031 70.585938 259.582031 C 71.089844 259.582031 71.605469 259.453125 72.070312 259.175781 C 73.460938 258.347656 73.917969 256.554688 73.097656 255.167969 C 72.273438 253.78125 70.480469 253.320312 69.089844 254.148438 Z M 52.105469 198.640625 C 53.71875 198.550781 54.945312 197.167969 54.847656 195.554688 L 54.847656 195.546875 C 54.757812 193.9375 53.367188 192.710938 51.753906 192.808594 C 50.144531 192.90625 48.917969 194.289062 49.015625 195.898438 C 49.105469 197.453125 50.390625 198.648438 51.929688 198.648438 C 51.988281 198.648438 52.046875 198.648438 52.105469 198.640625 Z M 62.042969 239.707031 C 60.5625 240.359375 59.894531 242.085938 60.550781 243.558594 C 61.03125 244.652344 62.101562 245.300781 63.226562 245.300781 C 63.621094 245.300781 64.019531 245.222656 64.40625 245.054688 C 65.882812 244.398438 66.550781 242.671875 65.894531 241.195312 C 65.238281 239.722656 63.519531 239.050781 62.042969 239.707031 Z M 60.402344 226.457031 C 59.933594 224.914062 58.296875 224.042969 56.757812 224.515625 C 55.210938 224.992188 54.339844 226.621094 54.816406 228.167969 C 55.199219 229.425781 56.355469 230.238281 57.609375 230.238281 C 57.894531 230.238281 58.179688 230.191406 58.464844 230.109375 C 60.011719 229.632812 60.875 227.996094 60.402344 226.457031 Z M 56.703125 211.167969 C 56.417969 209.585938 54.898438 208.527344 53.316406 208.8125 C 51.722656 209.097656 50.664062 210.617188 50.957031 212.203125 C 51.210938 213.617188 52.4375 214.613281 53.828125 214.613281 C 53.996094 214.613281 54.171875 214.59375 54.347656 214.566406 C 55.933594 214.28125 56.992188 212.761719 56.703125 211.167969 Z M 144.941406 313.402344 C 143.414062 312.886719 141.757812 313.710938 141.238281 315.238281 C 140.722656 316.773438 141.542969 318.429688 143.074219 318.941406 C 143.386719 319.042969 143.699219 319.097656 144.011719 319.097656 C 145.230469 319.097656 146.367188 318.324219 146.777344 317.109375 C 147.289062 315.578125 146.472656 313.921875 144.941406 313.402344 Z M 278.839844 90.171875 C 279.632812 90.171875 280.425781 89.847656 280.996094 89.21875 C 282.089844 88.023438 282.003906 86.179688 280.808594 85.089844 C 279.613281 84.003906 277.769531 84.089844 276.679688 85.277344 C 275.59375 86.472656 275.679688 88.324219 276.871094 89.40625 C 277.429688 89.921875 278.132812 90.171875 278.839844 90.171875 Z M 299.84375 114.4375 C 300.410156 114.4375 300.980469 114.277344 301.480469 113.933594 C 302.820312 113.03125 303.171875 111.210938 302.261719 109.875 C 301.359375 108.535156 299.539062 108.191406 298.203125 109.09375 C 296.863281 110.003906 296.519531 111.816406 297.421875 113.152344 C 297.988281 113.992188 298.910156 114.4375 299.84375 114.4375 Z M 301.625 260.933594 C 300.289062 260.03125 298.46875 260.382812 297.566406 261.71875 L 297.566406 261.726562 C 296.664062 263.058594 297.015625 264.875 298.351562 265.78125 C 298.859375 266.117188 299.421875 266.28125 299.988281 266.28125 C 300.921875 266.28125 301.847656 265.832031 302.410156 264.992188 C 303.3125 263.65625 302.964844 261.835938 301.625 260.933594 Z M 277.054688 285.511719 C 275.859375 286.601562 275.78125 288.453125 276.871094 289.640625 C 277.445312 290.273438 278.238281 290.589844 279.027344 290.589844 C 279.730469 290.589844 280.4375 290.335938 281.003906 289.824219 C 282.191406 288.734375 282.269531 286.886719 281.183594 285.691406 C 280.09375 284.503906 278.242188 284.421875 277.054688 285.511719 Z M 290.058594 101.683594 C 290.738281 101.683594 291.421875 101.449219 291.972656 100.976562 C 293.195312 99.917969 293.324219 98.070312 292.265625 96.851562 C 291.214844 95.628906 289.371094 95.492188 288.148438 96.550781 C 286.925781 97.609375 286.789062 99.457031 287.847656 100.675781 C 288.425781 101.34375 289.238281 101.683594 290.058594 101.683594 Z M 308.054688 128.253906 C 308.511719 128.253906 308.964844 128.148438 309.394531 127.929688 C 310.828125 127.183594 311.394531 125.421875 310.652344 123.988281 C 309.90625 122.550781 308.144531 121.992188 306.710938 122.734375 C 305.277344 123.472656 304.71875 125.234375 305.457031 126.667969 C 305.976562 127.675781 306.996094 128.253906 308.054688 128.253906 Z M 288.011719 274.222656 C 286.960938 275.445312 287.097656 277.289062 288.316406 278.347656 C 288.867188 278.820312 289.542969 279.054688 290.226562 279.054688 C 291.046875 279.054688 291.855469 278.710938 292.433594 278.042969 C 292.441406 278.042969 292.441406 278.042969 292.441406 278.042969 C 293.492188 276.820312 293.355469 274.976562 292.136719 273.917969 C 290.910156 272.867188 289.0625 273 288.011719 274.222656 Z M 322.527344 200.6875 C 320.921875 200.496094 319.46875 201.648438 319.277344 203.25 C 319.089844 204.851562 320.238281 206.304688 321.84375 206.492188 C 321.953125 206.507812 322.070312 206.511719 322.1875 206.511719 C 323.648438 206.511719 324.910156 205.421875 325.085938 203.933594 C 325.273438 202.328125 324.128906 200.875 322.527344 200.6875 Z M 309.515625 246.917969 C 308.082031 246.175781 306.316406 246.742188 305.582031 248.179688 L 305.582031 248.183594 C 304.839844 249.621094 305.40625 251.378906 306.839844 252.121094 C 307.269531 252.335938 307.722656 252.4375 308.179688 252.4375 C 309.238281 252.4375 310.257812 251.859375 310.777344 250.855469 C 311.515625 249.417969 310.953125 247.660156 309.515625 246.917969 Z M 320.046875 216.574219 C 318.472656 216.195312 316.894531 217.164062 316.519531 218.730469 C 316.140625 220.300781 317.101562 221.878906 318.675781 222.257812 C 318.902344 222.316406 319.136719 222.339844 319.363281 222.339844 C 320.683594 222.339844 321.875 221.4375 322.203125 220.101562 C 322.578125 218.527344 321.609375 216.949219 320.046875 216.574219 Z M 326.046875 187.25 C 326.039062 185.636719 324.726562 184.332031 323.117188 184.332031 C 321.5 184.339844 320.195312 185.652344 320.199219 187.261719 L 320.199219 187.546875 C 320.199219 189.15625 321.507812 190.464844 323.125 190.464844 C 324.734375 190.464844 326.046875 189.15625 326.046875 187.546875 C 326.046875 187.496094 326.046875 187.449219 326.039062 187.402344 C 326.046875 187.351562 326.046875 187.300781 326.046875 187.25 Z M 315.6875 232.0625 C 314.171875 231.5 312.492188 232.273438 311.925781 233.785156 C 311.367188 235.296875 312.132812 236.980469 313.648438 237.539062 C 313.984375 237.667969 314.328125 237.726562 314.667969 237.726562 C 315.855469 237.726562 316.972656 237 317.40625 235.816406 C 317.964844 234.304688 317.199219 232.621094 315.6875 232.0625 Z M 314.570312 142.953125 C 314.914062 142.953125 315.257812 142.886719 315.597656 142.765625 C 317.109375 142.199219 317.875 140.515625 317.3125 139.003906 C 316.746094 137.488281 315.0625 136.722656 313.550781 137.289062 C 312.035156 137.855469 311.269531 139.535156 311.835938 141.050781 C 312.269531 142.226562 313.386719 142.953125 314.570312 142.953125 Z M 237.117188 64.367188 C 237.472656 64.511719 237.84375 64.578125 238.207031 64.578125 C 239.363281 64.578125 240.460938 63.886719 240.921875 62.75 C 241.527344 61.25 240.800781 59.550781 239.304688 58.945312 C 237.8125 58.339844 236.105469 59.0625 235.5 60.5625 C 234.894531 62.058594 235.617188 63.757812 237.117188 64.367188 Z M 207.082031 318.890625 C 205.484375 319.121094 204.386719 320.609375 204.621094 322.207031 C 204.835938 323.664062 206.082031 324.703125 207.511719 324.703125 C 207.65625 324.703125 207.796875 324.695312 207.941406 324.667969 C 209.539062 324.4375 210.644531 322.949219 210.402344 321.351562 C 210.167969 319.753906 208.683594 318.65625 207.082031 318.890625 Z M 222.199219 59.355469 C 222.457031 59.425781 222.710938 59.457031 222.964844 59.457031 C 224.25 59.457031 225.433594 58.601562 225.78125 57.296875 C 226.207031 55.738281 225.289062 54.132812 223.730469 53.710938 C 222.171875 53.289062 220.566406 54.210938 220.144531 55.769531 C 219.722656 57.328125 220.644531 58.933594 222.199219 59.355469 Z M 206.804688 56.152344 C 206.949219 56.179688 207.089844 56.183594 207.226562 56.183594 C 208.65625 56.183594 209.902344 55.140625 210.117188 53.683594 C 210.351562 52.085938 209.246094 50.605469 207.648438 50.371094 C 206.050781 50.136719 204.5625 51.242188 204.328125 52.839844 C 204.097656 54.4375 205.207031 55.925781 206.804688 56.152344 Z M 222.476562 315.660156 C 220.917969 316.082031 220.003906 317.6875 220.425781 319.246094 C 220.78125 320.546875 221.957031 321.402344 223.242188 321.402344 C 223.503906 321.402344 223.757812 321.371094 224.015625 321.296875 C 225.574219 320.871094 226.492188 319.265625 226.070312 317.707031 C 225.640625 316.148438 224.035156 315.230469 222.476562 315.660156 Z M 191.417969 320.277344 C 189.800781 320.324219 188.535156 321.675781 188.578125 323.285156 C 188.625 324.871094 189.925781 326.125 191.503906 326.125 C 191.527344 326.125 191.5625 326.125 191.585938 326.117188 C 193.203125 326.074219 194.46875 324.726562 194.425781 323.109375 C 194.375 321.5 193.027344 320.234375 191.417969 320.277344 Z M 191.132812 54.800781 L 191.210938 54.800781 C 192.789062 54.800781 194.085938 53.546875 194.132812 51.957031 C 194.179688 50.347656 192.90625 49 191.289062 48.957031 C 189.675781 48.910156 188.332031 50.183594 188.289062 51.800781 C 188.242188 53.410156 189.515625 54.757812 191.132812 54.800781 Z M 237.375 310.613281 C 235.875 311.226562 235.15625 312.925781 235.765625 314.425781 C 236.226562 315.558594 237.324219 316.246094 238.472656 316.246094 C 238.84375 316.246094 239.214844 316.179688 239.570312 316.03125 C 241.074219 315.421875 241.785156 313.71875 241.183594 312.226562 C 240.570312 310.730469 238.871094 310.011719 237.375 310.613281 Z M 251.554688 303.839844 C 250.144531 304.625 249.632812 306.398438 250.414062 307.816406 C 250.945312 308.777344 251.945312 309.320312 252.972656 309.320312 C 253.453125 309.320312 253.9375 309.203125 254.386719 308.957031 C 255.796875 308.179688 256.308594 306.398438 255.53125 304.984375 C 254.75 303.574219 252.972656 303.0625 251.554688 303.839844 Z M 175.6875 319.832031 C 174.082031 319.6875 172.660156 320.875 172.523438 322.488281 C 172.382812 324.089844 173.570312 325.507812 175.179688 325.648438 C 175.265625 325.65625 175.347656 325.664062 175.433594 325.664062 C 176.933594 325.664062 178.214844 324.515625 178.34375 322.992188 C 178.488281 321.382812 177.296875 319.96875 175.6875 319.832031 Z M 264.644531 79.507812 C 265.15625 79.878906 265.753906 80.054688 266.335938 80.054688 C 267.253906 80.054688 268.148438 79.632812 268.722656 78.832031 C 269.65625 77.519531 269.359375 75.695312 268.046875 74.753906 C 266.734375 73.8125 264.910156 74.117188 263.96875 75.429688 C 263.027344 76.742188 263.332031 78.566406 264.644531 79.507812 Z M 251.328125 71.117188 C 251.777344 71.363281 252.257812 71.480469 252.738281 71.480469 C 253.761719 71.480469 254.765625 70.933594 255.296875 69.96875 C 256.074219 68.550781 255.5625 66.773438 254.148438 66 C 252.730469 65.21875 250.957031 65.734375 250.179688 67.148438 C 249.398438 68.566406 249.910156 70.339844 251.328125 71.117188 Z M 264.84375 295.433594 C 263.53125 296.378906 263.234375 298.203125 264.179688 299.515625 C 264.746094 300.308594 265.644531 300.730469 266.550781 300.730469 C 267.144531 300.730469 267.742188 300.546875 268.261719 300.175781 C 269.566406 299.234375 269.863281 297.410156 268.921875 296.097656 C 267.980469 294.785156 266.15625 294.488281 264.84375 295.433594 Z M 264.84375 295.433594 " fill-opacity="1" fill-rule="nonzero"/></g><g clip-path="url(#741845d8f6)"><g clip-path="url(#17b1a43f40)"><path fill="#ffffff" d="M 60.019531 60.019531 L 314.980469 60.019531 L 314.980469 314.980469 L 60.019531 314.980469 Z M 60.019531 60.019531 " fill-opacity="1" fill-rule="nonzero"/></g></g><path fill="#00a89f" d="M 276.621094 173.722656 L 266.164062 201.136719 C 217.398438 201.917969 191.257812 223.0625 187.371094 227.027344 L 187.371094 220.847656 C 191.875 214.6875 223.832031 173.722656 276.621094 173.722656 " fill-opacity="1" fill-rule="nonzero"/><path fill="#f8b31a" d="M 286.867188 185.164062 L 275.480469 212.578125 C 220.742188 212.578125 191.921875 235.550781 187.371094 239.496094 L 187.371094 232.523438 C 195.796875 225.699219 224.640625 207.589844 273.238281 207.589844 L 282.523438 185.242188 C 283.957031 185.191406 285.40625 185.164062 286.867188 185.164062 " fill-opacity="1" fill-rule="nonzero"/><g clip-path="url(#d8e58f080c)"><path fill="#00609e" d="M 294.992188 192.84375 L 282.679688 222.484375 C 222.472656 222.484375 191.429688 248.1875 187.371094 251.792969 L 187.371094 244.851562 C 196.167969 237.625 227.253906 217.703125 280.257812 217.703125 L 290.554688 192.921875 C 292.019531 192.871094 293.5 192.84375 294.992188 192.84375 " fill-opacity="1" fill-rule="nonzero"/></g><path fill="#00a89f" d="M 98.121094 173.722656 L 108.578125 201.136719 C 157.347656 201.917969 183.484375 223.0625 187.371094 227.027344 L 187.371094 220.847656 C 182.867188 214.6875 150.914062 173.722656 98.121094 173.722656 " fill-opacity="1" fill-rule="nonzero"/><path fill="#f8b31a" d="M 87.878906 185.164062 L 99.265625 212.578125 C 154.003906 212.578125 182.824219 235.550781 187.371094 239.496094 L 187.371094 232.523438 C 178.949219 225.699219 150.101562 207.589844 101.503906 207.589844 L 92.222656 185.242188 C 90.789062 185.191406 89.339844 185.164062 87.878906 185.164062 " fill-opacity="1" fill-rule="nonzero"/><g clip-path="url(#1321474a91)"><path fill="#00609e" d="M 79.75 192.84375 L 92.066406 222.484375 C 152.273438 222.484375 183.3125 248.1875 187.371094 251.792969 L 187.371094 244.851562 C 178.574219 237.625 147.492188 217.703125 94.484375 217.703125 L 84.1875 192.921875 C 82.726562 192.871094 81.242188 192.84375 79.75 192.84375 " fill-opacity="1" fill-rule="nonzero"/></g><path fill="#00609e" d="M 188.542969 212.332031 C 188.542969 212.332031 197.425781 187.300781 248.878906 168.203125 C 248.878906 168.203125 197.425781 182.421875 220.203125 130.015625 C 220.203125 130.015625 188.542969 160.890625 188.542969 212.332031 " fill-opacity="1" fill-rule="nonzero"/><path fill="#00609e" d="M 233.210938 149.878906 C 236.546875 154.109375 235.527344 160.46875 230.933594 164.082031 C 226.339844 167.695312 219.910156 167.195312 216.574219 162.964844 C 213.242188 158.734375 214.261719 152.375 218.855469 148.761719 C 223.449219 145.148438 229.875 145.648438 233.210938 149.878906 " fill-opacity="1" fill-rule="nonzero"/><path fill="#f8b31a" d="M 186.199219 212.332031 C 186.199219 212.332031 177.316406 187.300781 125.867188 168.203125 C 125.867188 168.203125 177.316406 182.421875 154.539062 130.015625 C 154.539062 130.015625 186.199219 160.890625 186.199219 212.332031 " fill-opacity="1" fill-rule="nonzero"/><path fill="#f8b31a" d="M 141.535156 149.878906 C 138.199219 154.109375 139.21875 160.46875 143.8125 164.082031 C 148.40625 167.695312 154.832031 167.195312 158.167969 162.964844 C 161.503906 158.734375 160.484375 152.375 155.890625 148.761719 C 151.296875 145.148438 144.867188 145.648438 141.535156 149.878906 " fill-opacity="1" fill-rule="nonzero"/><g clip-path="url(#7f3fe79502)"><path fill="#00a89f" d="M 178.414062 138.714844 C 172.835938 132.410156 165.023438 125.472656 156.054688 122.90625 C 156.054688 122.90625 182.324219 144.726562 187.371094 185.164062 C 192.421875 144.726562 218.691406 122.90625 218.691406 122.90625 C 209.71875 125.472656 201.910156 132.410156 196.332031 138.714844 C 191.582031 144.085938 183.164062 144.085938 178.414062 138.714844 " fill-opacity="1" fill-rule="nonzero"/></g><path fill="#00a89f" d="M 195.777344 133.945312 C 195.777344 128.820312 192.011719 124.667969 187.371094 124.667969 C 182.730469 124.667969 178.96875 128.820312 178.96875 133.945312 C 178.96875 139.066406 182.730469 143.21875 187.371094 143.21875 C 192.011719 143.21875 195.777344 139.066406 195.777344 133.945312 " fill-opacity="1" fill-rule="nonzero"/></svg>